.
 
http://www.scenetime.com    -  Hottest private tracker on the net. !!!

New release on http://www.scenetime.com

        Seed back for speed


...................................NFO:.................................................[IMG]http://img231.imageshack.us/img231/8696/68884487.jpg[/IMG]


[color=blue][size=5][b]The.Ledge.2011.BDRip.XVID.AC3.HQ.Hive-CM8[/b][/size][/color]


[b]Thx Hive

CM8 Doing It Right The First Time :D


Source: Bluray

Video: 720x400  @bitrate 1650 2pass
Audio: English DTS to AC3 5.1 @448
Sample: yes, included
Subs: yes, english in srt /subs[/b]


[url]http://www.imdb.com/title/tt1535970/[/url]


General
Complete name                    : The.Ledge.2011.BDRip.XVID.AC3.HQ.Hive-CM8.avi
Format                           : AVI
Format/Info                      : Audio Video Interleave
File size                        : 1.49 GiB
Duration                         : 1h 40mn
Overall bit rate                 : 2 117 Kbps
Writing application              : Nandub v1.0rc2
Writing library                  : Nandub build 1853/release

Video
ID                               : 0
Format                           : MPEG-4 Visual
Format profile                   : Advanced Simple@L5
Format settings, BVOP            : 1
Format settings, QPel            : Yes
Format settings, GMC             : No warppoints
Format settings, Matrix          : Default (H.263)
Muxing mode                      : Packed bitstream
Codec ID                         : XVID
Codec ID/Hint                    : XviD
Duration                         : 1h 40mn
Bit rate                         : 1 659 Kbps
Width                            : 720 pixels
Height                           : 400 pixels
Display aspect ratio             : 16:9
Frame rate                       : 23.976 fps
Color space                      : YUV
Chroma subsampling               : 4:2:0
Bit depth                        : 8 bits
Scan type                        : Progressive
Compression mode                 : Lossy
Bits/(Pixel*Frame)               : 0.240
Stream size                      : 1.17 GiB (78%)
Writing library                  : XviD 1.2.1 (UTC 2008-12-04)

Audio
ID                               : 1
Format                           : AC-3
Format/Info                      : Audio Coding 3
Mode extension                   : CM (complete main)
Codec ID                         : 2000
Duration                         : 1h 40mn
Bit rate mode                    : Constant
Bit rate                         : 448 Kbps
Channel(s)                       : 6 channels
Channel positions                : Front: L C R, Side: L R, LFE
Sampling rate                    : 48.0 KHz
Bit depth                        : 16 bits
Compression mode                 : Lossy
Stream size                      : 323 MiB (21%)
Alignment                        : Split accross interleaves
Interleave, duration             : 42 ms (1.00 video frame)
Interleave, preload duration     : 500 ms


Plot:
A police officer looks to talk down a young man lured by his lover's husband to the
ledge of a high rise, where he has one hour to contemplate a fateful decision.


Cast:
Charlie Hunnam      ...   Gavin Nichols
Patrick Wilson      ...   Joe
Liv Tyler           ...   Shana
Terrence Howard     ...   Hollis Lucetti
Christopher Gorham  ...   Chris


[img]http://img153.imageshack.us/img153/9403/36073979.png[/img]
[img]http://img143.imageshack.us/img143/9325/lelea.png[/img]
[img]http://img853.imageshack.us/img853/5199/lelele.png[/img]
[img]http://img832.imageshack.us/img832/2154/lelelelek.png[/img]
[img]http://img339.imageshack.us/img339/3091/leleleleleu.png[/img]
[img]http://img855.imageshack.us/img855/8/lelelelelele.png[/img]



Greetz

ViSiON,SiC,SANTi,3LT0N,YanKeeS,MAGNET,THC,T0XiC,LKRG,FANTASIA-PLAY,FANTASIA-M,FLAWL3SS,
D2U,WBZ,BHRG,NOVA,Vik,Rapeseed,SAFC,goldadvance,MEMORY100,KaN1vE,Unevano,Pinnz,Wayne
Mr Hive,cedrict wink,and all P2P groups
Great Work Guys :D

FYS

LOOKING FOR ANYTHING YOU WANT TO LOOK AND SOUND BETTER

CM8@hushmail.com